<svg width="13" height="14" viewBox="0 0 13 14" fill="none" xmlns="http://www.w3.org/2000/svg">
<path d="M7.20833 12.4583H11.4583V6.0677L6.5 2.21153L1.54167 6.0677V12.4583H5.79167V8.20828H7.20833V12.4583ZM12.875 13.1666C12.875 13.3545 12.8004 13.5346 12.6675 13.6675C12.5347 13.8003 12.3545 13.8749 12.1667 13.8749H0.833333C0.645472 13.8749 0.465304 13.8003 0.332466 13.6675C0.199628 13.5346 0.125 13.3545 0.125 13.1666V5.72203C0.124925 5.61409 0.14952 5.50756 0.196907 5.41058C0.244294 5.31359 0.313218 5.22872 0.398417 5.16245L6.06508 0.755199C6.18943 0.658472 6.34247 0.605957 6.5 0.605957C6.65753 0.605957 6.81057 0.658472 6.93492 0.755199L12.6016 5.16245C12.6868 5.22872 12.7557 5.31359 12.8031 5.41058C12.8505 5.50756 12.8751 5.61409 12.875 5.72203V13.1666Z" fill="black"/>
</svg>
