<svg width="15" height="15" viewBox="0 0 15 15" fill="none" xmlns="http://www.w3.org/2000/svg">
<path d="M3.95842 3.54171V1.41671C3.95842 1.22885 4.03304 1.04868 4.16588 0.91584C4.29872 0.783002 4.47889 0.708374 4.66675 0.708374H10.3334C10.5213 0.708374 10.7014 0.783002 10.8343 0.91584C10.9671 1.04868 11.0417 1.22885 11.0417 1.41671V3.54171H13.8751C14.0629 3.54171 14.2431 3.61634 14.3759 3.74917C14.5088 3.88201 14.5834 4.06218 14.5834 4.25004V14.1667C14.5834 14.3546 14.5088 14.5347 14.3759 14.6676C14.2431 14.8004 14.0629 14.875 13.8751 14.875H1.12508C0.93722 14.875 0.757052 14.8004 0.624214 14.6676C0.491376 14.5347 0.416748 14.3546 0.416748 14.1667V4.25004C0.416748 4.06218 0.491376 3.88201 0.624214 3.74917C0.757052 3.61634 0.93722 3.54171 1.12508 3.54171H3.95842ZM1.83341 11.3334V13.4584H13.1667V11.3334H1.83341ZM1.83341 9.91671H13.1667V4.95837H1.83341V9.91671ZM5.37508 2.12504V3.54171H9.62508V2.12504H5.37508ZM6.79175 7.79171H8.20842V9.20837H6.79175V7.79171Z" fill="black"/>
</svg>
