<svg width="17" height="17" viewBox="0 0 17 17" fill="none" xmlns="http://www.w3.org/2000/svg">
<path d="M15 11V2H16.5V0.5H14.25C14.0511 0.5 13.8603 0.579018 13.7197 0.71967C13.579 0.860322 13.5 1.05109 13.5 1.25V10.25H4.1715L2.6715 4.25H12V2.75H1.71C1.596 2.75 1.48349 2.776 1.38104 2.826C1.27859 2.87601 1.18889 2.94871 1.11875 3.03859C1.04861 3.12847 0.999887 3.23315 0.976278 3.34468C0.952669 3.45622 0.954797 3.57166 0.9825 3.68225L2.8575 11.1823C2.89813 11.3444 2.99179 11.4884 3.12359 11.5913C3.2554 11.6941 3.4178 11.75 3.585 11.75H14.25C14.4489 11.75 14.6397 11.671 14.7803 11.5303C14.921 11.3897 15 11.1989 15 11ZM13.5 16.25C13.8978 16.25 14.2794 16.092 14.5607 15.8107C14.842 15.5294 15 15.1478 15 14.75C15 14.3522 14.842 13.9706 14.5607 13.6893C14.2794 13.408 13.8978 13.25 13.5 13.25C13.1022 13.25 12.7206 13.408 12.4393 13.6893C12.158 13.9706 12 14.3522 12 14.75C12 15.1478 12.158 15.5294 12.4393 15.8107C12.7206 16.092 13.1022 16.25 13.5 16.25ZM4.5 16.25C4.89782 16.25 5.27936 16.092 5.56066 15.8107C5.84196 15.5294 6 15.1478 6 14.75C6 14.3522 5.84196 13.9706 5.56066 13.6893C5.27936 13.408 4.89782 13.25 4.5 13.25C4.10218 13.25 3.72064 13.408 3.43934 13.6893C3.15804 13.9706 3 14.3522 3 14.75C3 15.1478 3.15804 15.5294 3.43934 15.8107C3.72064 16.092 4.10218 16.25 4.5 16.25Z" fill="black"/>
</svg>
