<svg width="17" height="16" viewBox="0 0 17 16" fill="none" xmlns="http://www.w3.org/2000/svg">
<path d="M8.58001 15.9997C4.17082 15.9997 0.59668 12.4255 0.59668 8.01634C0.59668 3.60715 4.17082 0.0330086 8.58001 0.0330086C12.9892 0.0330086 16.5633 3.60715 16.5633 8.01634C16.5633 12.4255 12.9892 15.9997 8.58001 15.9997ZM8.58001 14.403C10.2739 14.403 11.8983 13.7301 13.0961 12.5324C14.2938 11.3347 14.9667 9.71019 14.9667 8.01634C14.9667 6.32249 14.2938 4.69802 13.0961 3.50029C11.8983 2.30255 10.2739 1.62968 8.58001 1.62968C6.88616 1.62968 5.26169 2.30255 4.06396 3.50029C2.86623 4.69802 2.19335 6.32249 2.19335 8.01634C2.19335 9.71019 2.86623 11.3347 4.06396 12.5324C5.26169 13.7301 6.88616 14.403 8.58001 14.403ZM7.78168 10.4113H9.37835V12.008H7.78168V10.4113ZM7.78168 4.02467H9.37835V8.81467H7.78168V4.02467Z" fill="black"/>
</svg>
