<svg width="15" height="15" viewBox="0 0 15 15" fill="none" xmlns="http://www.w3.org/2000/svg">
<path d="M5.47721 6.18233C6.22631 7.49837 7.31619 8.58824 8.63222 9.33735L9.33795 8.34901C9.45144 8.19009 9.61924 8.07828 9.80961 8.03473C9.99998 7.99119 10.1997 8.01893 10.371 8.11271C11.5001 8.72976 12.747 9.10086 14.0298 9.20163C14.23 9.2175 14.4168 9.30824 14.5531 9.45576C14.6894 9.60328 14.765 9.79674 14.765 9.99757V13.5597C14.7651 13.7574 14.6918 13.948 14.5593 14.0948C14.4269 14.2415 14.2447 14.3339 14.0481 14.3541C13.625 14.398 13.1987 14.4195 12.7692 14.4195C5.93545 14.4195 0.39502 8.8791 0.39502 2.04537C0.39502 1.61587 0.416575 1.18956 0.460483 0.766441C0.480644 0.569809 0.573035 0.387648 0.719773 0.255215C0.866511 0.122783 1.05716 0.0494951 1.25482 0.0495377H4.81699C5.01782 0.0495125 5.21128 0.125181 5.3588 0.261456C5.50632 0.397731 5.59706 0.584599 5.61293 0.784803C5.7137 2.06756 6.0848 3.31447 6.70185 4.44356C6.79563 4.61486 6.82337 4.81458 6.77982 5.00495C6.73628 5.19531 6.62447 5.36312 6.46555 5.47661L5.47721 6.18233ZM3.46381 5.65783L4.98065 4.57449C4.55017 3.64531 4.25524 2.65916 4.10487 1.6462H1.99967C1.99488 1.77873 1.99248 1.91205 1.99248 2.04537C1.99169 7.99774 6.81681 12.8229 12.7692 12.8229C12.9025 12.8229 13.0358 12.8205 13.1684 12.8149V10.7097C12.1554 10.5593 11.1693 10.2644 10.2401 9.83391L9.15673 11.3507C8.72057 11.1813 8.29693 10.9812 7.88897 10.752L7.84267 10.7256C6.2768 9.83449 4.98007 8.53775 4.08891 6.97189L4.06256 6.92558C3.83337 6.51763 3.63329 6.09399 3.46381 5.65783Z" fill="black"/>
</svg>
