<svg width="18" height="17" viewBox="0 0 18 17" fill="none" xmlns="http://www.w3.org/2000/svg">
<path d="M3.99167 7.43621H10.3783V9.03287H3.99167V11.4279L0 8.23454L3.99167 5.04121V7.43621ZM3.19333 13.0245H5.35522C6.27704 13.8375 7.41387 14.3672 8.62929 14.5501C9.8447 14.733 11.0871 14.5613 12.2073 14.0556C13.3276 13.5499 14.2781 12.7317 14.9449 11.6992C15.6116 10.6666 15.9663 9.46364 15.9663 8.23454C15.9663 7.00544 15.6116 5.80245 14.9449 4.76992C14.2781 3.73739 13.3276 2.91919 12.2073 2.41349C11.0871 1.90779 9.8447 1.73609 8.62929 1.91897C7.41387 2.10186 6.27704 2.63157 5.35522 3.44454H3.19333C3.93631 2.45235 4.90044 1.6471 6.00911 1.09276C7.11779 0.538426 8.34046 0.250276 9.58 0.251208C13.9892 0.251208 17.5633 3.82535 17.5633 8.23454C17.5633 12.6437 13.9892 16.2179 9.58 16.2179C8.34046 16.2188 7.11779 15.9307 6.00911 15.3763C4.90044 14.822 3.93631 14.0167 3.19333 13.0245Z" fill="black"/>
</svg>
