<svg width="15" height="19" viewBox="0 0 15 19" fill="none" xmlns="http://www.w3.org/2000/svg">
<path d="M11.6387 11.8414C12.3895 11.0482 12.8914 10.0523 13.0823 8.97697C13.2732 7.90161 13.1449 6.79387 12.7131 5.79067C12.2813 4.78747 11.565 3.93279 10.6527 3.33226C9.74044 2.73174 8.6722 2.4117 7.58002 2.4117C6.48784 2.4117 5.4196 2.73174 4.50733 3.33226C3.59507 3.93279 2.87877 4.78747 2.44697 5.79067C2.01518 6.79387 1.88681 7.90161 2.07775 8.97697C2.26868 10.0523 2.77054 11.0482 3.5213 11.8414C3.95213 11.1539 4.55063 10.5872 5.2606 10.1945C5.97056 9.80185 6.76869 9.59606 7.58002 9.5965C8.39135 9.59606 9.18948 9.80185 9.89945 10.1945C10.6094 10.5872 11.2079 11.1539 11.6387 11.8414ZM4.69405 13.0174L7.58002 15.9025L10.466 13.0174C10.2072 12.4709 9.79858 12.0092 9.28769 11.6859C8.7768 11.3626 8.18462 11.191 7.58002 11.191C6.97542 11.191 6.38324 11.3626 5.87235 11.6859C5.36146 12.0092 4.95285 12.4709 4.69405 13.0174ZM7.58002 18.161L2.49943 13.0804C1.4946 12.0756 0.810302 10.7953 0.533074 9.40159C0.255846 8.00784 0.398138 6.56318 0.941957 5.25029C1.48577 3.93741 2.40669 2.81527 3.58826 2.02578C4.76982 1.23629 6.15897 0.814896 7.58002 0.814896C9.00108 0.814896 10.3902 1.23629 11.5718 2.02578C12.7533 2.81527 13.6743 3.93741 14.2181 5.25029C14.7619 6.56318 14.9042 8.00784 14.627 9.40159C14.3497 10.7953 13.6654 12.0756 12.6606 13.0804L7.58002 18.161ZM7.58002 7.2015C7.79175 7.2015 7.99481 7.11739 8.14453 6.96767C8.29425 6.81796 8.37836 6.6149 8.37836 6.40317C8.37836 6.19144 8.29425 5.98838 8.14453 5.83866C7.99481 5.68894 7.79175 5.60483 7.58002 5.60483C7.36829 5.60483 7.16523 5.68894 7.01552 5.83866C6.8658 5.98838 6.78169 6.19144 6.78169 6.40317C6.78169 6.6149 6.8658 6.81796 7.01552 6.96767C7.16523 7.11739 7.36829 7.2015 7.58002 7.2015ZM7.58002 8.79817C6.94483 8.79817 6.33565 8.54584 5.8865 8.09669C5.43735 7.64754 5.18502 7.03836 5.18502 6.40317C5.18502 5.76797 5.43735 5.1588 5.8865 4.70965C6.33565 4.2605 6.94483 4.00817 7.58002 4.00817C8.21522 4.00817 8.82439 4.2605 9.27354 4.70965C9.72269 5.1588 9.97502 5.76797 9.97502 6.40317C9.97502 7.03836 9.72269 7.64754 9.27354 8.09669C8.82439 8.54584 8.21522 8.79817 7.58002 8.79817Z" fill="black"/>
</svg>
