<svg width="17" height="16" viewBox="0 0 17 16" fill="none" xmlns="http://www.w3.org/2000/svg">
<path d="M8.58165 0.596954C9.85228 0.596954 11.0709 1.10171 11.9693 2.00018C12.8678 2.89865 13.3726 4.11724 13.3726 5.38786V6.18635H16.5665V7.78332H15.6347L15.0302 15.036C15.0136 15.2355 14.9226 15.4215 14.7753 15.5571C14.628 15.6927 14.4351 15.7681 14.2349 15.7682H2.92838C2.72815 15.7681 2.53528 15.6927 2.38798 15.5571C2.24068 15.4215 2.14971 15.2355 2.13309 15.036L1.52783 7.78332H0.596802V6.18635H3.79074V5.38786C3.79074 4.11724 4.2955 2.89865 5.19397 2.00018C6.09244 1.10171 7.31102 0.596954 8.58165 0.596954ZM14.0321 7.78332H3.13039L3.66298 14.1712H13.4995L14.0321 7.78332ZM9.38013 9.38029V12.5742H7.78316V9.38029H9.38013ZM6.1862 9.38029V12.5742H4.58923V9.38029H6.1862ZM12.5741 9.38029V12.5742H10.9771V9.38029H12.5741ZM8.58165 2.19392C7.76221 2.19392 6.97412 2.50887 6.38038 3.07363C5.78664 3.63839 5.43267 4.40975 5.3917 5.22817L5.38771 5.38786V6.18635H11.7756V5.38786C11.7756 4.56842 11.4606 3.78033 10.8959 3.18659C10.3311 2.59285 9.55976 2.23889 8.74135 2.19792L8.58165 2.19392Z" fill="black"/>
</svg>
