<svg width="15" height="17" viewBox="0 0 15 17" fill="none" xmlns="http://www.w3.org/2000/svg">
<path d="M2.395 7.18494V15.1683H12.7733V7.18494H2.395ZM11.975 5.58827H13.5717C13.7834 5.58827 13.9865 5.67238 14.1362 5.8221C14.2859 5.97182 14.37 6.17487 14.37 6.38661V15.9666C14.37 16.1783 14.2859 16.3814 14.1362 16.5311C13.9865 16.6808 13.7834 16.7649 13.5717 16.7649H0.798333C0.586602 16.7649 0.383543 16.6808 0.233826 16.5311C0.0841098 16.3814 0 16.1783 0 15.9666V6.38661C0 6.17487 0.0841098 5.97182 0.233826 5.8221C0.383543 5.67238 0.586602 5.58827 0.798333 5.58827H2.395V4.78994C2.395 3.51955 2.89966 2.3012 3.79796 1.4029C4.69626 0.504598 5.91461 -6.10352e-05 7.185 -6.10352e-05C8.45539 -6.10352e-05 9.67374 0.504598 10.572 1.4029C11.4703 2.3012 11.975 3.51955 11.975 4.78994V5.58827ZM10.3783 5.58827V4.78994C10.3783 3.94301 10.0419 3.13078 9.44303 2.53191C8.84416 1.93304 8.03193 1.59661 7.185 1.59661C6.33808 1.59661 5.52584 1.93304 4.92697 2.53191C4.32811 3.13078 3.99167 3.94301 3.99167 4.78994V5.58827H10.3783ZM3.19333 7.98327H4.79V9.57994H3.19333V7.98327ZM3.19333 10.3783H4.79V11.9749H3.19333V10.3783ZM3.19333 12.7733H4.79V14.3699H3.19333V12.7733Z" fill="black"/>
</svg>
