<svg width="16" height="17" viewBox="0 0 16 17" fill="none" xmlns="http://www.w3.org/2000/svg">
<path d="M12.7733 12.7567V14.3534C12.7733 14.5651 12.8574 14.7682 13.0072 14.9179C13.1569 15.0676 13.3599 15.1517 13.5717 15.1517C13.7834 15.1517 13.9865 15.0676 14.1362 14.9179C14.2859 14.7682 14.37 14.5651 14.37 14.3534V2.3784H3.19333V11.1601H1.59667V1.58007C1.59667 1.36834 1.68078 1.16528 1.83049 1.01556C1.98021 0.865848 2.18327 0.781738 2.395 0.781738H15.1683C15.3801 0.781738 15.5831 0.865848 15.7328 1.01556C15.8826 1.16528 15.9667 1.36834 15.9667 1.58007V14.3534C15.9667 14.9886 15.7143 15.5978 15.2652 16.0469C14.816 16.4961 14.2069 16.7484 13.5717 16.7484H2.395C1.75981 16.7484 1.15063 16.4961 0.701479 16.0469C0.25233 15.5978 0 14.9886 0 14.3534V12.7567H12.7733Z" fill="black"/>
</svg>
