<svg width="15" height="18" viewBox="0 0 15 18" fill="none" xmlns="http://www.w3.org/2000/svg">
<path d="M6.78165 14.3591C4.95825 14.153 3.28281 13.257 2.09888 11.855C0.914946 10.453 0.312239 8.65119 0.414338 6.81902C0.516438 4.98684 1.31561 3.26314 2.64798 2.00136C3.98035 0.739585 5.74496 0.0353419 7.57998 0.0330372C9.41726 0.031699 11.1852 0.734242 12.5205 1.99625C13.8558 3.25826 14.6569 4.98383 14.7591 6.81827C14.8613 8.6527 14.2569 10.4566 13.0701 11.8591C11.8833 13.2617 10.2044 14.1563 8.37831 14.3591V17.5964H6.78165V14.3591ZM7.57998 12.8064C8.31385 12.8064 9.04053 12.6618 9.71854 12.381C10.3966 12.1001 11.0126 11.6885 11.5315 11.1696C12.0505 10.6507 12.4621 10.0346 12.7429 9.3566C13.0238 8.67859 13.1683 7.95191 13.1683 7.21804C13.1683 6.48417 13.0238 5.75748 12.7429 5.07947C12.4621 4.40147 12.0505 3.78541 11.5315 3.26649C11.0126 2.74756 10.3966 2.33593 9.71854 2.05509C9.04053 1.77425 8.31385 1.6297 7.57998 1.6297C6.09786 1.6297 4.67645 2.21847 3.62843 3.26649C2.58042 4.3145 1.99165 5.73592 1.99165 7.21804C1.99165 8.70016 2.58042 10.1216 3.62843 11.1696C4.67645 12.2176 6.09786 12.8064 7.57998 12.8064Z" fill="black"/>
</svg>
