<svg width="17" height="17" viewBox="0 0 17 17" fill="none" xmlns="http://www.w3.org/2000/svg">
<path d="M14.1683 16.7815H2.99168C2.35649 16.7815 1.74731 16.5291 1.29816 16.08C0.849009 15.6308 0.59668 15.0217 0.59668 14.3865V1.61314C0.59668 1.40141 0.68079 1.19835 0.830506 1.04863C0.980223 0.898916 1.18328 0.814806 1.39501 0.814806H12.5717C12.7834 0.814806 12.9865 0.898916 13.1362 1.04863C13.2859 1.19835 13.37 1.40141 13.37 1.61314V11.1931H16.5633V14.3865C16.5633 15.0217 16.311 15.6308 15.8619 16.08C15.4127 16.5291 14.8035 16.7815 14.1683 16.7815ZM13.37 12.7898V14.3865C13.37 14.5982 13.4541 14.8013 13.6038 14.951C13.7536 15.1007 13.9566 15.1848 14.1683 15.1848C14.3801 15.1848 14.5831 15.1007 14.7329 14.951C14.8826 14.8013 14.9667 14.5982 14.9667 14.3865V12.7898H13.37ZM11.7733 15.1848V2.41147H2.19335V14.3865C2.19335 14.5982 2.27746 14.8013 2.42717 14.951C2.57689 15.1007 2.77995 15.1848 2.99168 15.1848H11.7733ZM3.79001 4.80647H10.1767V6.40314H3.79001V4.80647ZM3.79001 7.99981H10.1767V9.59647H3.79001V7.99981ZM3.79001 11.1931H7.78168V12.7898H3.79001V11.1931Z" fill="black"/>
</svg>
