<svg width="18" height="17" viewBox="0 0 18 17" fill="none" xmlns="http://www.w3.org/2000/svg">
<path d="M4.6875 8.0625C4.17042 8.0625 3.6584 7.96065 3.18068 7.76278C2.70296 7.5649 2.2689 7.27486 1.90327 6.90923C1.53764 6.5436 1.2476 6.10954 1.04972 5.63182C0.851846 5.1541 0.75 4.64208 0.75 4.125C0.75 3.60792 0.851846 3.0959 1.04972 2.61818C1.2476 2.14046 1.53764 1.7064 1.90327 1.34077C2.2689 0.975136 2.70296 0.685102 3.18068 0.487224C3.6584 0.289347 4.17042 0.1875 4.6875 0.1875C5.73179 0.1875 6.73331 0.602342 7.47173 1.34077C8.21016 2.07919 8.625 3.08071 8.625 4.125C8.625 5.16929 8.21016 6.17081 7.47173 6.90923C6.73331 7.64766 5.73179 8.0625 4.6875 8.0625ZM5.125 16.8125C4.08071 16.8125 3.07919 16.3977 2.34077 15.6592C1.60234 14.9208 1.1875 13.9193 1.1875 12.875C1.1875 11.8307 1.60234 10.8292 2.34077 10.0908C3.07919 9.35234 4.08071 8.9375 5.125 8.9375C6.16929 8.9375 7.17081 9.35234 7.90923 10.0908C8.64766 10.8292 9.0625 11.8307 9.0625 12.875C9.0625 13.9193 8.64766 14.9208 7.90923 15.6592C7.17081 16.3977 6.16929 16.8125 5.125 16.8125ZM13.875 8.0625C13.3579 8.0625 12.8459 7.96065 12.3682 7.76278C11.8905 7.5649 11.4564 7.27486 11.0908 6.90923C10.7251 6.5436 10.4351 6.10954 10.2372 5.63182C10.0393 5.1541 9.9375 4.64208 9.9375 4.125C9.9375 3.60792 10.0393 3.0959 10.2372 2.61818C10.4351 2.14046 10.7251 1.7064 11.0908 1.34077C11.4564 0.975136 11.8905 0.685102 12.3682 0.487224C12.8459 0.289347 13.3579 0.1875 13.875 0.1875C14.9193 0.1875 15.9208 0.602342 16.6592 1.34077C17.3977 2.07919 17.8125 3.08071 17.8125 4.125C17.8125 5.16929 17.3977 6.17081 16.6592 6.90923C15.9208 7.64766 14.9193 8.0625 13.875 8.0625ZM13.875 16.8125C12.8307 16.8125 11.8292 16.3977 11.0908 15.6592C10.3523 14.9208 9.9375 13.9193 9.9375 12.875C9.9375 11.8307 10.3523 10.8292 11.0908 10.0908C11.8292 9.35234 12.8307 8.9375 13.875 8.9375C14.9193 8.9375 15.9208 9.35234 16.6592 10.0908C17.3977 10.8292 17.8125 11.8307 17.8125 12.875C17.8125 13.9193 17.3977 14.9208 16.6592 15.6592C15.9208 16.3977 14.9193 16.8125 13.875 16.8125ZM4.6875 6.3125C5.26766 6.3125 5.82406 6.08203 6.2343 5.6718C6.64453 5.26156 6.875 4.70516 6.875 4.125C6.875 3.54484 6.64453 2.98844 6.2343 2.5782C5.82406 2.16797 5.26766 1.9375 4.6875 1.9375C4.10734 1.9375 3.55094 2.16797 3.1407 2.5782C2.73047 2.98844 2.5 3.54484 2.5 4.125C2.5 4.70516 2.73047 5.26156 3.1407 5.6718C3.55094 6.08203 4.10734 6.3125 4.6875 6.3125ZM5.125 15.0625C5.70516 15.0625 6.26156 14.832 6.6718 14.4218C7.08203 14.0116 7.3125 13.4552 7.3125 12.875C7.3125 12.2948 7.08203 11.7384 6.6718 11.3282C6.26156 10.918 5.70516 10.6875 5.125 10.6875C4.54484 10.6875 3.98844 10.918 3.5782 11.3282C3.16797 11.7384 2.9375 12.2948 2.9375 12.875C2.9375 13.4552 3.16797 14.0116 3.5782 14.4218C3.98844 14.832 4.54484 15.0625 5.125 15.0625ZM13.875 6.3125C14.4552 6.3125 15.0116 6.08203 15.4218 5.6718C15.832 5.26156 16.0625 4.70516 16.0625 4.125C16.0625 3.54484 15.832 2.98844 15.4218 2.5782C15.0116 2.16797 14.4552 1.9375 13.875 1.9375C13.2948 1.9375 12.7384 2.16797 12.3282 2.5782C11.918 2.98844 11.6875 3.54484 11.6875 4.125C11.6875 4.70516 11.918 5.26156 12.3282 5.6718C12.7384 6.08203 13.2948 6.3125 13.875 6.3125ZM13.875 15.0625C14.4552 15.0625 15.0116 14.832 15.4218 14.4218C15.832 14.0116 16.0625 13.4552 16.0625 12.875C16.0625 12.2948 15.832 11.7384 15.4218 11.3282C15.0116 10.918 14.4552 10.6875 13.875 10.6875C13.2948 10.6875 12.7384 10.918 12.3282 11.3282C11.918 11.7384 11.6875 12.2948 11.6875 12.875C11.6875 13.4552 11.918 14.0116 12.3282 14.4218C12.7384 14.832 13.2948 15.0625 13.875 15.0625Z" fill="black"/>
</svg>
