<svg width="19" height="19" viewBox="0 0 19 19" fill="none" xmlns="http://www.w3.org/2000/svg">
<path d="M4.53947 8.89145C3.96796 8.89145 3.40205 8.77888 2.87405 8.56017C2.34604 8.34147 1.86628 8.0209 1.46216 7.61678C1.05805 7.21267 0.737481 6.73291 0.518774 6.2049C0.300067 5.6769 0.1875 5.11098 0.1875 4.53947C0.1875 3.96796 0.300067 3.40205 0.518774 2.87405C0.737481 2.34604 1.05805 1.86628 1.46216 1.46216C1.86628 1.05805 2.34604 0.737481 2.87405 0.518774C3.40205 0.300067 3.96796 0.1875 4.53947 0.1875C5.69369 0.1875 6.80063 0.64601 7.61678 1.46216C8.43294 2.27832 8.89145 3.38526 8.89145 4.53947C8.89145 5.69369 8.43294 6.80063 7.61678 7.61678C6.80063 8.43294 5.69369 8.89145 4.53947 8.89145ZM4.53947 18.5625C3.38526 18.5625 2.27832 18.104 1.46216 17.2878C0.64601 16.4717 0.1875 15.3647 0.1875 14.2105C0.1875 13.0563 0.64601 11.9494 1.46216 11.1332C2.27832 10.3171 3.38526 9.85855 4.53947 9.85855C5.69369 9.85855 6.80063 10.3171 7.61678 11.1332C8.43294 11.9494 8.89145 13.0563 8.89145 14.2105C8.89145 15.3647 8.43294 16.4717 7.61678 17.2878C6.80063 18.104 5.69369 18.5625 4.53947 18.5625ZM14.2105 8.89145C13.639 8.89145 13.0731 8.77888 12.5451 8.56017C12.0171 8.34147 11.5373 8.0209 11.1332 7.61678C10.7291 7.21267 10.4085 6.73291 10.1898 6.2049C9.97112 5.6769 9.85855 5.11098 9.85855 4.53947C9.85855 3.96796 9.97112 3.40205 10.1898 2.87405C10.4085 2.34604 10.7291 1.86628 11.1332 1.46216C11.5373 1.05805 12.0171 0.737481 12.5451 0.518774C13.0731 0.300067 13.639 0.1875 14.2105 0.1875C15.3647 0.1875 16.4717 0.64601 17.2878 1.46216C18.104 2.27832 18.5625 3.38526 18.5625 4.53947C18.5625 5.69369 18.104 6.80063 17.2878 7.61678C16.4717 8.43294 15.3647 8.89145 14.2105 8.89145ZM14.2105 18.5625C13.0563 18.5625 11.9494 18.104 11.1332 17.2878C10.3171 16.4717 9.85855 15.3647 9.85855 14.2105C9.85855 13.0563 10.3171 11.9494 11.1332 11.1332C11.9494 10.3171 13.0563 9.85855 14.2105 9.85855C15.3647 9.85855 16.4717 10.3171 17.2878 11.1332C18.104 11.9494 18.5625 13.0563 18.5625 14.2105C18.5625 15.3647 18.104 16.4717 17.2878 17.2878C16.4717 18.104 15.3647 18.5625 14.2105 18.5625Z" fill="#1A2859"/>
</svg>
