<svg width="17" height="18" viewBox="0 0 17 18" fill="none" xmlns="http://www.w3.org/2000/svg">
<path d="M16.375 16.5C16.375 16.7321 16.2828 16.9546 16.1187 17.1187C15.9546 17.2828 15.7321 17.375 15.5 17.375H1.5C1.26794 17.375 1.04538 17.2828 0.881282 17.1187C0.717187 16.9546 0.625 16.7321 0.625 16.5V7.30374C0.624908 7.1704 0.65529 7.03881 0.713827 6.91901C0.772363 6.7992 0.857505 6.69436 0.96275 6.61249L7.96275 1.16824C8.11635 1.04876 8.3054 0.983887 8.5 0.983887C8.6946 0.983887 8.88365 1.04876 9.03725 1.16824L16.0373 6.61249C16.1425 6.69436 16.2276 6.7992 16.2862 6.91901C16.3447 7.03881 16.3751 7.1704 16.375 7.30374V16.5ZM7.625 10.375V15.625H9.375V10.375H7.625Z" fill="#1A2859"/>
</svg>
