<svg width="19" height="20" viewBox="0 0 19 20" fill="none" xmlns="http://www.w3.org/2000/svg">
<path d="M18.25 16.5H0.75V14.75H1.625V8.65213C1.625 4.28763 5.15125 0.75 9.5 0.75C13.8488 0.75 17.375 4.28763 17.375 8.65213V14.75H18.25V16.5ZM3.375 14.75H15.625V8.65213C15.625 5.2545 12.8827 2.5 9.5 2.5C6.11725 2.5 3.375 5.2545 3.375 8.65213V14.75ZM7.3125 17.375H11.6875C11.6875 17.9552 11.457 18.5116 11.0468 18.9218C10.6366 19.332 10.0802 19.5625 9.5 19.5625C8.91984 19.5625 8.36344 19.332 7.9532 18.9218C7.54297 18.5116 7.3125 17.9552 7.3125 17.375Z" fill="black"/>
</svg>
