<svg width="19" height="19" viewBox="0 0 19 19" fill="none" xmlns="http://www.w3.org/2000/svg">
<path d="M9.5 18.25C4.66738 18.25 0.75 14.3326 0.75 9.5C0.75 4.66738 4.66738 0.75 9.5 0.75C14.3326 0.75 18.25 4.66738 18.25 9.5C18.25 14.3326 14.3326 18.25 9.5 18.25ZM9.5 16.5C11.3565 16.5 13.137 15.7625 14.4497 14.4497C15.7625 13.137 16.5 11.3565 16.5 9.5C16.5 7.64348 15.7625 5.86301 14.4497 4.55025C13.137 3.2375 11.3565 2.5 9.5 2.5C7.64348 2.5 5.86301 3.2375 4.55025 4.55025C3.2375 5.86301 2.5 7.64348 2.5 9.5C2.5 11.3565 3.2375 13.137 4.55025 14.4497C5.86301 15.7625 7.64348 16.5 9.5 16.5ZM5.125 9.5H6.875C6.875 10.1962 7.15156 10.8639 7.64384 11.3562C8.13613 11.8484 8.80381 12.125 9.5 12.125C10.1962 12.125 10.8639 11.8484 11.3562 11.3562C11.8484 10.8639 12.125 10.1962 12.125 9.5H13.875C13.875 10.6603 13.4141 11.7731 12.5936 12.5936C11.7731 13.4141 10.6603 13.875 9.5 13.875C8.33968 13.875 7.22688 13.4141 6.40641 12.5936C5.58594 11.7731 5.125 10.6603 5.125 9.5Z" fill="black"/>
</svg>
