<svg width="19" height="19" viewBox="0 0 19 19" fill="none" xmlns="http://www.w3.org/2000/svg">
<path d="M9.5 18.25C4.66738 18.25 0.75 14.3326 0.75 9.5C0.75 4.66738 4.66738 0.75 9.5 0.75C14.3326 0.75 18.25 4.66738 18.25 9.5C18.25 14.3326 14.3326 18.25 9.5 18.25ZM5.125 9.5C5.125 10.6603 5.58594 11.7731 6.40641 12.5936C7.22688 13.4141 8.33968 13.875 9.5 13.875C10.6603 13.875 11.7731 13.4141 12.5936 12.5936C13.4141 11.7731 13.875 10.6603 13.875 9.5H12.125C12.125 10.1962 11.8484 10.8639 11.3562 11.3562C10.8639 11.8484 10.1962 12.125 9.5 12.125C8.80381 12.125 8.13613 11.8484 7.64384 11.3562C7.15156 10.8639 6.875 10.1962 6.875 9.5H5.125Z" fill="#1A2859"/>
</svg>
