<svg width="51" height="51" viewBox="0 0 51 51" fill="none" xmlns="http://www.w3.org/2000/svg">
<path d="M43.8282 16.3883H46.2692C47.4885 16.3883 48.6577 16.8726 49.5199 17.7347C50.382 18.5969 50.8663 19.7661 50.8663 20.9853V30.1795C50.8663 31.3987 50.382 32.568 49.5199 33.4301C48.6577 34.2922 47.4885 34.7766 46.2692 34.7766H43.8282C43.2678 39.2203 41.105 43.3068 37.7457 46.2692C34.3864 49.2316 30.0614 50.8662 25.5824 50.8663V46.2692C29.2401 46.2692 32.7479 44.8162 35.3343 42.2299C37.9207 39.6435 39.3736 36.1357 39.3736 32.478V18.6868C39.3736 15.0292 37.9207 11.5213 35.3343 8.93497C32.7479 6.34862 29.2401 4.89562 25.5824 4.89562C21.9248 4.89562 18.4169 6.34862 15.8306 8.93497C13.2442 11.5213 11.7912 15.0292 11.7912 18.6868V34.7766H4.89565C3.67643 34.7766 2.50715 34.2922 1.64503 33.4301C0.782916 32.568 0.298584 31.3987 0.298584 30.1795V20.9853C0.298584 19.7661 0.782916 18.5969 1.64503 17.7347C2.50715 16.8726 3.67643 16.3883 4.89565 16.3883H7.33669C7.8976 11.945 10.0606 7.85905 13.4199 4.89717C16.7792 1.93529 21.1039 0.301025 25.5824 0.301025C30.061 0.301025 34.3857 1.93529 37.745 4.89717C41.1043 7.85905 43.2673 11.945 43.8282 16.3883ZM4.89565 20.9853V30.1795H7.19418V20.9853H4.89565ZM43.9707 20.9853V30.1795H46.2692V20.9853H43.9707ZM15.8367 34.2824L18.2731 30.3841C20.4638 31.7564 22.9974 32.4822 25.5824 32.478C28.1675 32.4822 30.7011 31.7564 32.8918 30.3841L35.3282 34.2824C32.4074 36.1123 29.0292 37.0804 25.5824 37.0751C22.1357 37.0804 18.7575 36.1123 15.8367 34.2824Z" fill="url(#paint0_linear_286_274)"/>
<defs>
<linearGradient id="paint0_linear_286_274" x1="25.5824" y1="0.301025" x2="25.5824" y2="50.8663" gradientUnits="userSpaceOnUse">
<stop stop-color="#1A2859"/>
<stop offset="1" stop-color="#3F489E"/>
</linearGradient>
</defs>
</svg>
