<svg width="20" height="17" viewBox="0 0 20 17" fill="none" xmlns="http://www.w3.org/2000/svg">
<path d="M19.25 15.5061C19.2484 15.7359 19.1565 15.9559 18.9941 16.1184C18.8316 16.281 18.6118 16.3732 18.382 16.375H2.618C2.38771 16.3748 2.16693 16.2831 2.00418 16.1202C1.84142 15.9573 1.75 15.7364 1.75 15.5061V14.625H17.5V4.3875L10.5 10.6875L1.75 2.8125V1.5C1.75 1.26794 1.84219 1.04538 2.00628 0.881282C2.17038 0.717187 2.39294 0.625 2.625 0.625H18.375C18.6071 0.625 18.8296 0.717187 18.9937 0.881282C19.1578 1.04538 19.25 1.26794 19.25 1.5V15.5061ZM3.87975 2.375L10.5 8.33375L17.1203 2.375H3.87975ZM0 11.125H7V12.875H0V11.125ZM0 6.75H4.375V8.5H0V6.75Z" fill="#3C4699"/>
</svg>
