<svg width="17" height="17" viewBox="0 0 17 17" fill="none" xmlns="http://www.w3.org/2000/svg">
<path d="M6.19525 7.34675C7.01629 8.78917 8.21083 9.98371 9.65325 10.8047L10.4268 9.7215C10.5511 9.54732 10.7351 9.42477 10.9437 9.37704C11.1524 9.32931 11.3713 9.35972 11.559 9.4625C12.7965 10.1388 14.1632 10.5456 15.5691 10.656C15.7886 10.6734 15.9934 10.7728 16.1427 10.9345C16.2921 11.0962 16.375 11.3083 16.375 11.5284V15.4326C16.375 15.6493 16.2947 15.8582 16.1496 16.0191C16.0044 16.1799 15.8048 16.2812 15.5892 16.3032C15.1255 16.3514 14.6582 16.375 14.1875 16.375C6.6975 16.375 0.625 10.3025 0.625 2.8125C0.625 2.34175 0.648625 1.8745 0.69675 1.41075C0.718848 1.19524 0.820111 0.995581 0.980941 0.85043C1.14177 0.705279 1.35073 0.624953 1.56738 0.625H5.47162C5.69174 0.624972 5.90378 0.707908 6.06547 0.857269C6.22716 1.00663 6.32661 1.21145 6.344 1.43088C6.45445 2.83682 6.86119 4.20347 7.5375 5.441C7.64028 5.62874 7.67069 5.84765 7.62296 6.0563C7.57523 6.26494 7.45268 6.44886 7.2785 6.57325L6.19525 7.34675ZM3.9885 6.77187L5.651 5.5845C5.17918 4.56608 4.85593 3.48524 4.69112 2.375H2.38375C2.3785 2.52025 2.37587 2.66637 2.37587 2.8125C2.375 9.3365 7.6635 14.625 14.1875 14.625C14.3336 14.625 14.4797 14.6224 14.625 14.6163V12.3089C13.5148 12.1441 12.4339 11.8208 11.4155 11.349L10.2281 13.0115C9.75008 12.8258 9.28576 12.6065 8.83862 12.3553L8.78788 12.3264C7.07163 11.3496 5.65037 9.92837 4.67362 8.21212L4.64475 8.16138C4.39354 7.71424 4.17425 7.24992 3.9885 6.77187Z" fill="#3C4699"/>
</svg>
