<svg width="17" height="18" viewBox="0 0 17 18" fill="none" xmlns="http://www.w3.org/2000/svg">
<path d="M2.375 12V17.25H0.625V0.625H8.83425C8.9967 0.625087 9.15593 0.670398 9.29409 0.755858C9.43224 0.841319 9.54388 0.963554 9.6165 1.10887L10.25 2.375H15.5C15.7321 2.375 15.9546 2.46719 16.1187 2.63128C16.2828 2.79538 16.375 3.01794 16.375 3.25V12.875C16.375 13.1071 16.2828 13.3296 16.1187 13.4937C15.9546 13.6578 15.7321 13.75 15.5 13.75H9.91575C9.7533 13.7499 9.59407 13.7046 9.45591 13.6191C9.31776 13.5337 9.20612 13.4114 9.1335 13.2661L8.5 12H2.375ZM2.375 2.375V10.25H9.5815L10.4565 12H14.625V4.125H9.1685L8.2935 2.375H2.375Z" fill="#3C4699"/>
</svg>
