<svg width="19" height="19" viewBox="0 0 19 19" fill="none" xmlns="http://www.w3.org/2000/svg">
<path d="M3.34431 3.459L6.44706 14.3177L9.10706 8.99775L14.0394 7.02462L3.34431 3.459ZM1.53656 1.0125L17.9918 6.497C18.077 6.52523 18.1514 6.57896 18.205 6.65091C18.2586 6.72286 18.2888 6.80955 18.2915 6.89924C18.2941 6.98892 18.2692 7.07726 18.22 7.15228C18.1707 7.2273 18.0996 7.28537 18.0163 7.31862L10.3749 10.375L6.50306 18.1187C6.46366 18.1976 6.40136 18.2627 6.32432 18.3056C6.24728 18.3484 6.1591 18.367 6.07133 18.3588C5.98355 18.3507 5.90028 18.3162 5.83243 18.26C5.76458 18.2037 5.7153 18.1282 5.69106 18.0435L0.977437 1.54712C0.955602 1.47048 0.955114 1.38934 0.976024 1.31244C0.996934 1.23555 1.03845 1.16583 1.09609 1.1108C1.15372 1.05577 1.2253 1.01754 1.30308 1.00021C1.38086 0.982886 1.46189 0.987134 1.53744 1.0125H1.53656Z" fill="#3C4699"/>
</svg>
