<svg width="19" height="19" viewBox="0 0 19 19" fill="none" xmlns="http://www.w3.org/2000/svg">
<path d="M15.625 18.25H3.375C2.67881 18.25 2.01113 17.9734 1.51884 17.4812C1.02656 16.9889 0.75 16.3212 0.75 15.625V1.625C0.75 1.39294 0.842187 1.17038 1.00628 1.00628C1.17038 0.842187 1.39294 0.75 1.625 0.75H13.875C14.1071 0.75 14.3296 0.842187 14.4937 1.00628C14.6578 1.17038 14.75 1.39294 14.75 1.625V12.125H18.25V15.625C18.25 16.3212 17.9734 16.9889 17.4812 17.4812C16.9889 17.9734 16.3212 18.25 15.625 18.25ZM14.75 13.875V15.625C14.75 15.8571 14.8422 16.0796 15.0063 16.2437C15.1704 16.4078 15.3929 16.5 15.625 16.5C15.8571 16.5 16.0796 16.4078 16.2437 16.2437C16.4078 16.0796 16.5 15.8571 16.5 15.625V13.875H14.75ZM13 16.5V2.5H2.5V15.625C2.5 15.8571 2.59219 16.0796 2.75628 16.2437C2.92038 16.4078 3.14294 16.5 3.375 16.5H13ZM4.25 5.125H11.25V6.875H4.25V5.125ZM4.25 8.625H11.25V10.375H4.25V8.625ZM4.25 12.125H8.625V13.875H4.25V12.125Z" fill="#3C4699"/>
</svg>
