<svg width="12" height="7" viewBox="0 0 12 7" fill="none" xmlns="http://www.w3.org/2000/svg">
<path d="M5.06501 4.921L4.67101 6.391L3.70551 6.132L4.09901 4.6625C3.51 4.44526 2.96257 4.12868 2.48051 3.7265L1.40401 4.8035L0.696513 4.096L1.77351 3.0195C1.16555 2.29138 0.757057 1.41788 0.588013 0.4845L1.03801 0.402C2.48262 1.44359 4.21906 2.0028 6.00001 2C7.85201 2 9.56551 1.4075 10.962 0.402L11.412 0.484C11.2432 1.41751 10.8349 2.29118 10.227 3.0195L11.3035 4.096L10.596 4.8035L9.51951 3.7265C9.03745 4.12868 8.49003 4.44526 7.90101 4.6625L8.29451 6.1325L7.32901 6.391L6.93501 4.921C6.31619 5.02704 5.68384 5.02704 5.06501 4.921Z" fill="#1A2859"/>
</svg>
