<svg width="39" height="16" viewBox="0 0 39 16" fill="none" xmlns="http://www.w3.org/2000/svg">
<rect x="0.5" y="0.5" width="38" height="15" rx="2.5" stroke="#039300"/>
<path d="M6.58032 11C6.5312 11 6.48944 10.9828 6.45506 10.9484C6.42067 10.914 6.40348 10.8723 6.40348 10.8232V6.01895C6.40348 5.96982 6.42067 5.92807 6.45506 5.89368C6.48944 5.8593 6.5312 5.8421 6.58032 5.8421H7.27295C7.32698 5.8421 7.36874 5.8593 7.39821 5.89368C7.4326 5.92807 7.44979 5.96982 7.44979 6.01895V10.8232C7.44979 10.8723 7.4326 10.914 7.39821 10.9484C7.36874 10.9828 7.32698 11 7.27295 11H6.58032ZM8.69379 11C8.64467 11 8.60291 10.9828 8.56853 10.9484C8.53414 10.914 8.51695 10.8723 8.51695 10.8232V7.34526C8.51695 7.29614 8.53414 7.25439 8.56853 7.22C8.60291 7.18561 8.64467 7.16842 8.69379 7.16842H9.298C9.34712 7.16842 9.38888 7.18561 9.42326 7.22C9.45765 7.25439 9.47484 7.29614 9.47484 7.34526V7.64737C9.60256 7.49018 9.76467 7.36 9.96116 7.25684C10.1626 7.14877 10.4106 7.09474 10.7054 7.09474C11.005 7.09474 11.2654 7.16351 11.4864 7.30105C11.7075 7.43368 11.8769 7.62281 11.9948 7.86842C12.1176 8.11403 12.1791 8.40877 12.1791 8.75263V10.8232C12.1791 10.8723 12.1619 10.914 12.1275 10.9484C12.0931 10.9828 12.0513 11 12.0022 11H11.3538C11.3047 11 11.2629 10.9828 11.2285 10.9484C11.1941 10.914 11.1769 10.8723 11.1769 10.8232V8.79684C11.1769 8.51193 11.1057 8.28842 10.9633 8.12632C10.8257 7.96421 10.6243 7.88316 10.3591 7.88316C10.1036 7.88316 9.89975 7.96421 9.74747 8.12632C9.59519 8.28842 9.51905 8.51193 9.51905 8.79684V10.8232C9.51905 10.8723 9.50186 10.914 9.46747 10.9484C9.43309 10.9828 9.39133 11 9.34221 11H8.69379ZM16.2504 11.0737C15.9557 11.0737 15.7027 11.0393 15.4914 10.9705C15.2851 10.9018 15.1157 10.8158 14.983 10.7126C14.8504 10.6095 14.7521 10.5063 14.6883 10.4032C14.6244 10.3 14.59 10.214 14.5851 10.1453C14.5802 10.0912 14.595 10.0495 14.6293 10.02C14.6686 9.98561 14.7104 9.96842 14.7546 9.96842H15.3367C15.3564 9.96842 15.3736 9.97088 15.3883 9.97579C15.403 9.9807 15.4227 9.99544 15.4472 10.02C15.5111 10.074 15.5774 10.1305 15.6462 10.1895C15.7199 10.2484 15.8058 10.3 15.9041 10.3442C16.0023 10.3835 16.1251 10.4032 16.2725 10.4032C16.4641 10.4032 16.6237 10.3663 16.7514 10.2926C16.8841 10.214 16.9504 10.1035 16.9504 9.96105C16.9504 9.85789 16.9209 9.77439 16.862 9.71053C16.8079 9.64667 16.7048 9.59018 16.5525 9.54105C16.4002 9.48702 16.1841 9.43053 15.9041 9.37158C15.629 9.30772 15.4006 9.22667 15.2188 9.12842C15.0371 9.03018 14.902 8.90737 14.8136 8.76C14.7251 8.61263 14.6809 8.4407 14.6809 8.24421C14.6809 8.05263 14.7374 7.87088 14.8504 7.69895C14.9683 7.5221 15.1402 7.37719 15.3662 7.26421C15.5971 7.15123 15.882 7.09474 16.2209 7.09474C16.4862 7.09474 16.7171 7.12912 16.9136 7.19789C17.11 7.26175 17.2721 7.34281 17.3999 7.44105C17.5325 7.5393 17.6332 7.64 17.702 7.74316C17.7707 7.8414 17.8076 7.92737 17.8125 8.00105C17.8174 8.05509 17.8027 8.0993 17.7683 8.13368C17.7339 8.16316 17.6946 8.17789 17.6504 8.17789H17.1051C17.0806 8.17789 17.0585 8.17298 17.0388 8.16316C17.0192 8.15333 16.9995 8.14105 16.9799 8.12632C16.9258 8.07719 16.8669 8.02561 16.803 7.97158C16.7392 7.91754 16.6606 7.87088 16.5672 7.83158C16.4788 7.78737 16.3609 7.76526 16.2136 7.76526C16.0269 7.76526 15.8844 7.80702 15.7862 7.89053C15.6879 7.96912 15.6388 8.06982 15.6388 8.19263C15.6388 8.27614 15.6609 8.34982 15.7051 8.41368C15.7543 8.47263 15.85 8.52912 15.9925 8.58316C16.135 8.63719 16.3511 8.69368 16.6409 8.75263C16.97 8.81158 17.2304 8.9 17.422 9.01789C17.6185 9.13088 17.756 9.26351 17.8346 9.41579C17.9181 9.56316 17.9599 9.72772 17.9599 9.90947C17.9599 10.1305 17.8936 10.3295 17.7609 10.5063C17.6332 10.6832 17.4416 10.8232 17.1862 10.9263C16.9357 11.0246 16.6237 11.0737 16.2504 11.0737ZM20.4377 11C20.1429 11 19.8949 10.9484 19.6935 10.8453C19.4921 10.7421 19.3422 10.5898 19.244 10.3884C19.1457 10.1821 19.0966 9.92667 19.0966 9.62211V7.94947H18.5145C18.4654 7.94947 18.4236 7.93228 18.3892 7.89789C18.3549 7.86351 18.3377 7.82175 18.3377 7.77263V7.34526C18.3377 7.29614 18.3549 7.25439 18.3892 7.22C18.4236 7.18561 18.4654 7.16842 18.5145 7.16842H19.0966V5.94526C19.0966 5.89614 19.1114 5.85439 19.1408 5.82C19.1752 5.78561 19.2194 5.76842 19.2735 5.76842H19.8703C19.9194 5.76842 19.9612 5.78561 19.9956 5.82C20.03 5.85439 20.0471 5.89614 20.0471 5.94526V7.16842H20.9682C21.0173 7.16842 21.0591 7.18561 21.0935 7.22C21.1278 7.25439 21.145 7.29614 21.145 7.34526V7.77263C21.145 7.82175 21.1278 7.86351 21.0935 7.89789C21.0591 7.93228 21.0173 7.94947 20.9682 7.94947H20.0471V9.54842C20.0471 9.74982 20.0815 9.90702 20.1503 10.02C20.224 10.133 20.3493 10.1895 20.5261 10.1895H21.0345C21.0836 10.1895 21.1254 10.2067 21.1598 10.2411C21.1942 10.2754 21.2114 10.3172 21.2114 10.3663V10.8232C21.2114 10.8723 21.1942 10.914 21.1598 10.9484C21.1254 10.9828 21.0836 11 21.0345 11H20.4377ZM23.5598 11.0737C23.1668 11.0737 22.8352 11.0049 22.565 10.8674C22.2998 10.7298 22.0959 10.5358 21.9534 10.2853C21.8159 10.0347 21.7373 9.74246 21.7176 9.40842C21.7127 9.32 21.7103 9.21193 21.7103 9.08421C21.7103 8.95649 21.7127 8.84842 21.7176 8.76C21.7373 8.42105 21.8183 8.12877 21.9608 7.88316C22.1082 7.63263 22.3145 7.4386 22.5798 7.30105C22.8499 7.16351 23.1766 7.09474 23.5598 7.09474C23.9429 7.09474 24.2671 7.16351 24.5324 7.30105C24.8026 7.4386 25.0089 7.63263 25.1513 7.88316C25.2987 8.12877 25.3822 8.42105 25.4019 8.76C25.4068 8.84842 25.4092 8.95649 25.4092 9.08421C25.4092 9.21193 25.4068 9.32 25.4019 9.40842C25.3822 9.74246 25.3012 10.0347 25.1587 10.2853C25.0212 10.5358 24.8173 10.7298 24.5471 10.8674C24.2819 11.0049 23.9527 11.0737 23.5598 11.0737ZM23.5598 10.3442C23.8201 10.3442 24.0215 10.2632 24.164 10.1011C24.3064 9.93403 24.385 9.69088 24.3998 9.37158C24.4047 9.29789 24.4071 9.20211 24.4071 9.08421C24.4071 8.96632 24.4047 8.87053 24.3998 8.79684C24.385 8.48246 24.3064 8.24175 24.164 8.07474C24.0215 7.90772 23.8201 7.82421 23.5598 7.82421C23.2994 7.82421 23.098 7.90772 22.9555 8.07474C22.8131 8.24175 22.7345 8.48246 22.7198 8.79684C22.7148 8.87053 22.7124 8.96632 22.7124 9.08421C22.7124 9.20211 22.7148 9.29789 22.7198 9.37158C22.7345 9.69088 22.8131 9.93403 22.9555 10.1011C23.098 10.2632 23.2994 10.3442 23.5598 10.3442ZM27.8835 11.0737C27.5298 11.0737 27.2179 11.0074 26.9477 10.8747C26.6825 10.7421 26.4737 10.5505 26.3214 10.3C26.174 10.0446 26.093 9.73754 26.0783 9.37895C26.0733 9.30526 26.0709 9.20947 26.0709 9.09158C26.0709 8.96877 26.0733 8.86807 26.0783 8.78947C26.093 8.43088 26.174 8.12632 26.3214 7.87579C26.4737 7.62035 26.6825 7.42632 26.9477 7.29368C27.2179 7.16105 27.5298 7.09474 27.8835 7.09474C28.1979 7.09474 28.4656 7.13895 28.6867 7.22737C28.9077 7.31579 29.0895 7.42632 29.2319 7.55895C29.3744 7.69158 29.48 7.83158 29.5488 7.97895C29.6225 8.1214 29.6618 8.25158 29.6667 8.36947C29.6716 8.42351 29.6544 8.46772 29.6151 8.5021C29.5807 8.53158 29.539 8.54632 29.4898 8.54632H28.8414C28.7923 8.54632 28.753 8.53403 28.7235 8.50947C28.699 8.48491 28.6744 8.44807 28.6498 8.39895C28.5761 8.20246 28.4779 8.06491 28.3551 7.98632C28.2372 7.90281 28.0849 7.86105 27.8983 7.86105C27.6526 7.86105 27.4561 7.93965 27.3088 8.09684C27.1663 8.24912 27.0902 8.49228 27.0804 8.82632C27.0705 9.01298 27.0705 9.18491 27.0804 9.34211C27.0902 9.68105 27.1663 9.92667 27.3088 10.0789C27.4561 10.2312 27.6526 10.3074 27.8983 10.3074C28.0898 10.3074 28.2446 10.2681 28.3625 10.1895C28.4804 10.106 28.5761 9.96596 28.6498 9.76947C28.6744 9.72035 28.699 9.68351 28.7235 9.65895C28.753 9.63439 28.7923 9.62211 28.8414 9.62211H29.4898C29.539 9.62211 29.5807 9.6393 29.6151 9.67368C29.6544 9.70316 29.6716 9.74491 29.6667 9.79895C29.6618 9.88737 29.6372 9.98807 29.593 10.1011C29.5537 10.2091 29.4874 10.3221 29.394 10.44C29.3056 10.553 29.1926 10.6586 29.0551 10.7568C28.9176 10.8502 28.7505 10.9263 28.554 10.9853C28.3625 11.0442 28.139 11.0737 27.8835 11.0737ZM30.6193 11C30.5702 11 30.5285 10.9828 30.4941 10.9484C30.4597 10.914 30.4425 10.8723 30.4425 10.8232V5.94526C30.4425 5.89614 30.4597 5.85439 30.4941 5.82C30.5285 5.78561 30.5702 5.76842 30.6193 5.76842H31.2162C31.2702 5.76842 31.312 5.78561 31.3414 5.82C31.3758 5.85439 31.393 5.89614 31.393 5.94526V8.46526L32.6309 7.29368C32.6751 7.25439 32.7144 7.22491 32.7488 7.20526C32.7832 7.1807 32.8348 7.16842 32.9035 7.16842H33.5888C33.6379 7.16842 33.6772 7.18316 33.7067 7.21263C33.7362 7.2421 33.7509 7.2814 33.7509 7.33053C33.7509 7.35018 33.746 7.37228 33.7362 7.39684C33.7264 7.4214 33.7067 7.44351 33.6772 7.46316L32.1593 8.88526L33.8614 10.7126C33.9106 10.7618 33.9351 10.8035 33.9351 10.8379C33.9351 10.887 33.9179 10.9263 33.8835 10.9558C33.8541 10.9853 33.8172 11 33.773 11H33.073C32.9993 11 32.9453 10.9902 32.9109 10.9705C32.8814 10.946 32.8446 10.914 32.8004 10.8747L31.393 9.39368V10.8232C31.393 10.8723 31.3758 10.914 31.3414 10.9484C31.312 10.9828 31.2702 11 31.2162 11H30.6193Z" fill="#039300"/>
</svg>
