<svg width="14" height="14" viewBox="0 0 14 14" fill="none" xmlns="http://www.w3.org/2000/svg">
<path d="M0.1701 4.01417L6.643 0.100599C6.75179 0.0347723 6.87628 0 7.00315 0C7.13002 0 7.25451 0.0347723 7.3633 0.100599L13.8299 4.01488C13.8818 4.04623 13.9247 4.09061 13.9545 4.14368C13.9843 4.19676 14 4.25672 14 4.31772V13.2941C14 13.4813 13.9263 13.6609 13.795 13.7932C13.6637 13.9256 13.4857 14 13.3 14H0.7C0.514348 14 0.336301 13.9256 0.205025 13.7932C0.0737498 13.6609 7.70508e-09 13.4813 7.70508e-09 13.2941V4.31701C-1.26825e-05 4.25601 0.0156505 4.19605 0.0454618 4.14298C0.0752732 4.0899 0.118215 4.04553 0.1701 4.01417ZM1.4 4.91703V12.5882H12.6V4.91633L7.0028 1.52795L1.4 4.91703ZM7.042 8.84543L10.7492 5.69495L11.6508 6.77499L7.0518 10.6836L2.3548 6.77994L3.2452 5.69001L7.042 8.84543Z" fill="#1A2859"/>
</svg>
