<svg width="52" height="16" viewBox="0 0 52 16" fill="none" xmlns="http://www.w3.org/2000/svg">
<rect x="0.5" y="0.5" width="51" height="15" rx="2.5" stroke="#930000"/>
<path d="M7.55684 11.0737C7.11965 11.0737 6.74386 11.0025 6.42947 10.86C6.11509 10.7126 5.86947 10.4891 5.69263 10.1895C5.51579 9.88491 5.42 9.50667 5.40526 9.05474C5.40035 8.84351 5.39789 8.63474 5.39789 8.42842C5.39789 8.2221 5.40035 8.01088 5.40526 7.79474C5.42 7.34772 5.51825 6.97439 5.7 6.67474C5.88175 6.37509 6.12982 6.14912 6.44421 5.99684C6.76351 5.84456 7.13439 5.76842 7.55684 5.76842C7.9793 5.76842 8.35018 5.84456 8.66947 5.99684C8.98877 6.14912 9.2393 6.37509 9.42105 6.67474C9.60281 6.97439 9.70105 7.34772 9.71579 7.79474C9.72561 8.01088 9.73053 8.2221 9.73053 8.42842C9.73053 8.63474 9.72561 8.84351 9.71579 9.05474C9.70105 9.50667 9.60526 9.88491 9.42842 10.1895C9.25158 10.4891 9.00351 10.7126 8.68421 10.86C8.36982 11.0025 7.99404 11.0737 7.55684 11.0737ZM7.55684 10.2263C7.87614 10.2263 8.13649 10.133 8.3379 9.94632C8.5393 9.75474 8.64737 9.44526 8.66211 9.01789C8.67193 8.80175 8.67684 8.60281 8.67684 8.42105C8.67684 8.23439 8.67193 8.03544 8.66211 7.82421C8.65228 7.5393 8.59825 7.30842 8.5 7.13158C8.40667 6.94982 8.27895 6.81965 8.11684 6.74105C7.95474 6.65754 7.76807 6.61579 7.55684 6.61579C7.35053 6.61579 7.16632 6.65754 7.00421 6.74105C6.84211 6.81965 6.71193 6.94982 6.61368 7.13158C6.52035 7.30842 6.46877 7.5393 6.45895 7.82421C6.45404 8.03544 6.45158 8.23439 6.45158 8.42105C6.45158 8.60281 6.45404 8.80175 6.45895 9.01789C6.47368 9.44526 6.58175 9.75474 6.78316 9.94632C6.98456 10.133 7.24246 10.2263 7.55684 10.2263ZM12.0318 11.0737C11.7321 11.0737 11.4718 11.0074 11.2507 10.8747C11.0346 10.7372 10.8676 10.5456 10.7497 10.3C10.6318 10.0495 10.5728 9.75474 10.5728 9.41579V7.34526C10.5728 7.29614 10.59 7.25439 10.6244 7.22C10.6588 7.18561 10.7005 7.16842 10.7497 7.16842H11.3981C11.4521 7.16842 11.4939 7.18561 11.5234 7.22C11.5577 7.25439 11.5749 7.29614 11.5749 7.34526V9.37158C11.5749 9.9807 11.8427 10.2853 12.3781 10.2853C12.6335 10.2853 12.8349 10.2042 12.9823 10.0421C13.1346 9.88 13.2107 9.65649 13.2107 9.37158V7.34526C13.2107 7.29614 13.2279 7.25439 13.2623 7.22C13.2967 7.18561 13.3384 7.16842 13.3876 7.16842H14.036C14.0851 7.16842 14.1269 7.18561 14.1613 7.22C14.1956 7.25439 14.2128 7.29614 14.2128 7.34526V10.8232C14.2128 10.8723 14.1956 10.914 14.1613 10.9484C14.1269 10.9828 14.0851 11 14.036 11H13.4391C13.3851 11 13.3409 10.9828 13.3065 10.9484C13.277 10.914 13.2623 10.8723 13.2623 10.8232V10.5211C13.1297 10.693 12.9651 10.8281 12.7686 10.9263C12.5721 11.0246 12.3265 11.0737 12.0318 11.0737ZM16.9177 11C16.623 11 16.3749 10.9484 16.1735 10.8453C15.9721 10.7421 15.8223 10.5898 15.724 10.3884C15.6258 10.1821 15.5767 9.92667 15.5767 9.62211V7.94947H14.9946C14.9454 7.94947 14.9037 7.93228 14.8693 7.89789C14.8349 7.86351 14.8177 7.82175 14.8177 7.77263V7.34526C14.8177 7.29614 14.8349 7.25439 14.8693 7.22C14.9037 7.18561 14.9454 7.16842 14.9946 7.16842H15.5767V5.94526C15.5767 5.89614 15.5914 5.85439 15.6209 5.82C15.6553 5.78561 15.6995 5.76842 15.7535 5.76842H16.3504C16.3995 5.76842 16.4412 5.78561 16.4756 5.82C16.51 5.85439 16.5272 5.89614 16.5272 5.94526V7.16842H17.4483C17.4974 7.16842 17.5391 7.18561 17.5735 7.22C17.6079 7.25439 17.6251 7.29614 17.6251 7.34526V7.77263C17.6251 7.82175 17.6079 7.86351 17.5735 7.89789C17.5391 7.93228 17.4974 7.94947 17.4483 7.94947H16.5272V9.54842C16.5272 9.74982 16.5616 9.90702 16.6304 10.02C16.704 10.133 16.8293 10.1895 17.0062 10.1895H17.5146C17.5637 10.1895 17.6055 10.2067 17.6398 10.2411C17.6742 10.2754 17.6914 10.3172 17.6914 10.3663V10.8232C17.6914 10.8723 17.6742 10.914 17.6398 10.9484C17.6055 10.9828 17.5637 11 17.5146 11H16.9177ZM21.7236 11.0737C21.3306 11.0737 20.9991 11.0049 20.7289 10.8674C20.4636 10.7298 20.2598 10.5358 20.1173 10.2853C19.9798 10.0347 19.9012 9.74246 19.8815 9.40842C19.8766 9.32 19.8741 9.21193 19.8741 9.08421C19.8741 8.95649 19.8766 8.84842 19.8815 8.76C19.9012 8.42105 19.9822 8.12877 20.1247 7.88316C20.272 7.63263 20.4783 7.4386 20.7436 7.30105C21.0138 7.16351 21.3405 7.09474 21.7236 7.09474C22.1068 7.09474 22.431 7.16351 22.6962 7.30105C22.9664 7.4386 23.1727 7.63263 23.3152 7.88316C23.4626 8.12877 23.5461 8.42105 23.5657 8.76C23.5706 8.84842 23.5731 8.95649 23.5731 9.08421C23.5731 9.21193 23.5706 9.32 23.5657 9.40842C23.5461 9.74246 23.465 10.0347 23.3226 10.2853C23.185 10.5358 22.9812 10.7298 22.711 10.8674C22.4457 11.0049 22.1166 11.0737 21.7236 11.0737ZM21.7236 10.3442C21.984 10.3442 22.1854 10.2632 22.3278 10.1011C22.4703 9.93403 22.5489 9.69088 22.5636 9.37158C22.5685 9.29789 22.571 9.20211 22.571 9.08421C22.571 8.96632 22.5685 8.87053 22.5636 8.79684C22.5489 8.48246 22.4703 8.24175 22.3278 8.07474C22.1854 7.90772 21.984 7.82421 21.7236 7.82421C21.4633 7.82421 21.2619 7.90772 21.1194 8.07474C20.9769 8.24175 20.8983 8.48246 20.8836 8.79684C20.8787 8.87053 20.8762 8.96632 20.8762 9.08421C20.8762 9.20211 20.8787 9.29789 20.8836 9.37158C20.8983 9.69088 20.9769 9.93403 21.1194 10.1011C21.2619 10.2632 21.4633 10.3442 21.7236 10.3442ZM24.9358 11C24.8867 11 24.8449 10.9828 24.8105 10.9484C24.7761 10.914 24.7589 10.8723 24.7589 10.8232V7.94947H24.1621C24.113 7.94947 24.0712 7.93228 24.0368 7.89789C24.0024 7.86351 23.9853 7.82175 23.9853 7.77263V7.34526C23.9853 7.29614 24.0024 7.25439 24.0368 7.22C24.0712 7.18561 24.113 7.16842 24.1621 7.16842H24.7589V6.86632C24.7589 6.57158 24.813 6.32842 24.921 6.13684C25.0291 5.94035 25.1888 5.79298 25.4 5.69474C25.6112 5.59649 25.8789 5.54737 26.2032 5.54737H26.7042C26.7582 5.54737 26.8 5.56456 26.8295 5.59895C26.8639 5.63333 26.881 5.67509 26.881 5.72421V6.15158C26.881 6.2007 26.8639 6.24246 26.8295 6.27684C26.8 6.31123 26.7582 6.32842 26.7042 6.32842H26.2326C26.0361 6.32842 25.901 6.37754 25.8274 6.47579C25.7537 6.57403 25.7168 6.71649 25.7168 6.90316V7.16842H26.6305C26.6846 7.16842 26.7263 7.18561 26.7558 7.22C26.7902 7.25439 26.8074 7.29614 26.8074 7.34526V7.77263C26.8074 7.82175 26.7902 7.86351 26.7558 7.89789C26.7263 7.93228 26.6846 7.94947 26.6305 7.94947H25.7168V10.8232C25.7168 10.8723 25.6996 10.914 25.6653 10.9484C25.6309 10.9828 25.5891 11 25.54 11H24.9358ZM30.3744 11.0737C30.0796 11.0737 29.8266 11.0393 29.6154 10.9705C29.4091 10.9018 29.2396 10.8158 29.107 10.7126C28.9744 10.6095 28.8761 10.5063 28.8123 10.4032C28.7484 10.3 28.714 10.214 28.7091 10.1453C28.7042 10.0912 28.7189 10.0495 28.7533 10.02C28.7926 9.98561 28.8344 9.96842 28.8786 9.96842H29.4607C29.4803 9.96842 29.4975 9.97088 29.5123 9.97579C29.527 9.9807 29.5466 9.99544 29.5712 10.02C29.6351 10.074 29.7014 10.1305 29.7702 10.1895C29.8438 10.2484 29.9298 10.3 30.0281 10.3442C30.1263 10.3835 30.2491 10.4032 30.3965 10.4032C30.5881 10.4032 30.7477 10.3663 30.8754 10.2926C31.0081 10.214 31.0744 10.1035 31.0744 9.96105C31.0744 9.85789 31.0449 9.77439 30.9859 9.71053C30.9319 9.64667 30.8288 9.59018 30.6765 9.54105C30.5242 9.48702 30.3081 9.43053 30.0281 9.37158C29.753 9.30772 29.5245 9.22667 29.3428 9.12842C29.161 9.03018 29.0259 8.90737 28.9375 8.76C28.8491 8.61263 28.8049 8.4407 28.8049 8.24421C28.8049 8.05263 28.8614 7.87088 28.9744 7.69895C29.0923 7.5221 29.2642 7.37719 29.4902 7.26421C29.721 7.15123 30.0059 7.09474 30.3449 7.09474C30.6102 7.09474 30.841 7.12912 31.0375 7.19789C31.234 7.26175 31.3961 7.34281 31.5238 7.44105C31.6565 7.5393 31.7572 7.64 31.8259 7.74316C31.8947 7.8414 31.9316 7.92737 31.9365 8.00105C31.9414 8.05509 31.9266 8.0993 31.8923 8.13368C31.8579 8.16316 31.8186 8.17789 31.7744 8.17789H31.2291C31.2045 8.17789 31.1824 8.17298 31.1628 8.16316C31.1431 8.15333 31.1235 8.14105 31.1038 8.12632C31.0498 8.07719 30.9909 8.02561 30.927 7.97158C30.8631 7.91754 30.7845 7.87088 30.6912 7.83158C30.6028 7.78737 30.4849 7.76526 30.3375 7.76526C30.1509 7.76526 30.0084 7.80702 29.9102 7.89053C29.8119 7.96912 29.7628 8.06982 29.7628 8.19263C29.7628 8.27614 29.7849 8.34982 29.8291 8.41368C29.8782 8.47263 29.974 8.52912 30.1165 8.58316C30.2589 8.63719 30.4751 8.69368 30.7649 8.75263C31.094 8.81158 31.3544 8.9 31.5459 9.01789C31.7424 9.13088 31.88 9.26351 31.9586 9.41579C32.0421 9.56316 32.0838 9.72772 32.0838 9.90947C32.0838 10.1305 32.0175 10.3295 31.8849 10.5063C31.7572 10.6832 31.5656 10.8232 31.3102 10.9263C31.0596 11.0246 30.7477 11.0737 30.3744 11.0737ZM34.5616 11C34.2669 11 34.0188 10.9484 33.8174 10.8453C33.616 10.7421 33.4662 10.5898 33.368 10.3884C33.2697 10.1821 33.2206 9.92667 33.2206 9.62211V7.94947H32.6385C32.5894 7.94947 32.5476 7.93228 32.5132 7.89789C32.4788 7.86351 32.4616 7.82175 32.4616 7.77263V7.34526C32.4616 7.29614 32.4788 7.25439 32.5132 7.22C32.5476 7.18561 32.5894 7.16842 32.6385 7.16842H33.2206V5.94526C33.2206 5.89614 33.2353 5.85439 33.2648 5.82C33.2992 5.78561 33.3434 5.76842 33.3974 5.76842H33.9943C34.0434 5.76842 34.0852 5.78561 34.1195 5.82C34.1539 5.85439 34.1711 5.89614 34.1711 5.94526V7.16842H35.0922C35.1413 7.16842 35.1831 7.18561 35.2174 7.22C35.2518 7.25439 35.269 7.29614 35.269 7.34526V7.77263C35.269 7.82175 35.2518 7.86351 35.2174 7.89789C35.1831 7.93228 35.1413 7.94947 35.0922 7.94947H34.1711V9.54842C34.1711 9.74982 34.2055 9.90702 34.2743 10.02C34.348 10.133 34.4732 10.1895 34.6501 10.1895H35.1585C35.2076 10.1895 35.2494 10.2067 35.2838 10.2411C35.3181 10.2754 35.3353 10.3172 35.3353 10.3663V10.8232C35.3353 10.8723 35.3181 10.914 35.2838 10.9484C35.2494 10.9828 35.2076 11 35.1585 11H34.5616ZM37.6837 11.0737C37.2907 11.0737 36.9592 11.0049 36.689 10.8674C36.4237 10.7298 36.2199 10.5358 36.0774 10.2853C35.9399 10.0347 35.8613 9.74246 35.8416 9.40842C35.8367 9.32 35.8343 9.21193 35.8343 9.08421C35.8343 8.95649 35.8367 8.84842 35.8416 8.76C35.8613 8.42105 35.9423 8.12877 36.0848 7.88316C36.2321 7.63263 36.4385 7.4386 36.7037 7.30105C36.9739 7.16351 37.3006 7.09474 37.6837 7.09474C38.0669 7.09474 38.3911 7.16351 38.6564 7.30105C38.9265 7.4386 39.1328 7.63263 39.2753 7.88316C39.4227 8.12877 39.5062 8.42105 39.5258 8.76C39.5307 8.84842 39.5332 8.95649 39.5332 9.08421C39.5332 9.21193 39.5307 9.32 39.5258 9.40842C39.5062 9.74246 39.4251 10.0347 39.2827 10.2853C39.1451 10.5358 38.9413 10.7298 38.6711 10.8674C38.4058 11.0049 38.0767 11.0737 37.6837 11.0737ZM37.6837 10.3442C37.9441 10.3442 38.1455 10.2632 38.2879 10.1011C38.4304 9.93403 38.509 9.69088 38.5237 9.37158C38.5286 9.29789 38.5311 9.20211 38.5311 9.08421C38.5311 8.96632 38.5286 8.87053 38.5237 8.79684C38.509 8.48246 38.4304 8.24175 38.2879 8.07474C38.1455 7.90772 37.9441 7.82421 37.6837 7.82421C37.4234 7.82421 37.222 7.90772 37.0795 8.07474C36.9371 8.24175 36.8585 8.48246 36.8437 8.79684C36.8388 8.87053 36.8364 8.96632 36.8364 9.08421C36.8364 9.20211 36.8388 9.29789 36.8437 9.37158C36.8585 9.69088 36.9371 9.93403 37.0795 10.1011C37.222 10.2632 37.4234 10.3442 37.6837 10.3442ZM42.0075 11.0737C41.6538 11.0737 41.3419 11.0074 41.0717 10.8747C40.8064 10.7421 40.5977 10.5505 40.4454 10.3C40.298 10.0446 40.217 9.73754 40.2022 9.37895C40.1973 9.30526 40.1949 9.20947 40.1949 9.09158C40.1949 8.96877 40.1973 8.86807 40.2022 8.78947C40.217 8.43088 40.298 8.12632 40.4454 7.87579C40.5977 7.62035 40.8064 7.42632 41.0717 7.29368C41.3419 7.16105 41.6538 7.09474 42.0075 7.09474C42.3219 7.09474 42.5896 7.13895 42.8107 7.22737C43.0317 7.31579 43.2135 7.42632 43.3559 7.55895C43.4984 7.69158 43.604 7.83158 43.6728 7.97895C43.7464 8.1214 43.7857 8.25158 43.7907 8.36947C43.7956 8.42351 43.7784 8.46772 43.7391 8.5021C43.7047 8.53158 43.6629 8.54632 43.6138 8.54632H42.9654C42.9163 8.54632 42.877 8.53403 42.8475 8.50947C42.8229 8.48491 42.7984 8.44807 42.7738 8.39895C42.7001 8.20246 42.6019 8.06491 42.4791 7.98632C42.3612 7.90281 42.2089 7.86105 42.0222 7.86105C41.7766 7.86105 41.5801 7.93965 41.4328 8.09684C41.2903 8.24912 41.2142 8.49228 41.2043 8.82632C41.1945 9.01298 41.1945 9.18491 41.2043 9.34211C41.2142 9.68105 41.2903 9.92667 41.4328 10.0789C41.5801 10.2312 41.7766 10.3074 42.0222 10.3074C42.2138 10.3074 42.3685 10.2681 42.4864 10.1895C42.6043 10.106 42.7001 9.96596 42.7738 9.76947C42.7984 9.72035 42.8229 9.68351 42.8475 9.65895C42.877 9.63439 42.9163 9.62211 42.9654 9.62211H43.6138C43.6629 9.62211 43.7047 9.6393 43.7391 9.67368C43.7784 9.70316 43.7956 9.74491 43.7907 9.79895C43.7857 9.88737 43.7612 9.98807 43.717 10.1011C43.6777 10.2091 43.6114 10.3221 43.518 10.44C43.4296 10.553 43.3166 10.6586 43.1791 10.7568C43.0415 10.8502 42.8745 10.9263 42.678 10.9853C42.4864 11.0442 42.2629 11.0737 42.0075 11.0737ZM44.7433 11C44.6942 11 44.6524 10.9828 44.618 10.9484C44.5837 10.914 44.5665 10.8723 44.5665 10.8232V5.94526C44.5665 5.89614 44.5837 5.85439 44.618 5.82C44.6524 5.78561 44.6942 5.76842 44.7433 5.76842H45.3401C45.3942 5.76842 45.4359 5.78561 45.4654 5.82C45.4998 5.85439 45.517 5.89614 45.517 5.94526V8.46526L46.7549 7.29368C46.7991 7.25439 46.8384 7.22491 46.8728 7.20526C46.9072 7.1807 46.9587 7.16842 47.0275 7.16842H47.7128C47.7619 7.16842 47.8012 7.18316 47.8307 7.21263C47.8601 7.2421 47.8749 7.2814 47.8749 7.33053C47.8749 7.35018 47.87 7.37228 47.8601 7.39684C47.8503 7.4214 47.8307 7.44351 47.8012 7.46316L46.2833 8.88526L47.9854 10.7126C48.0345 10.7618 48.0591 10.8035 48.0591 10.8379C48.0591 10.887 48.0419 10.9263 48.0075 10.9558C47.978 10.9853 47.9412 11 47.897 11H47.197C47.1233 11 47.0693 10.9902 47.0349 10.9705C47.0054 10.946 46.9686 10.914 46.9244 10.8747L45.517 9.39368V10.8232C45.517 10.8723 45.4998 10.914 45.4654 10.9484C45.4359 10.9828 45.3942 11 45.3401 11H44.7433Z" fill="#930000"/>
</svg>
