<svg width="12" height="14" viewBox="0 0 12 14" fill="none" xmlns="http://www.w3.org/2000/svg">
<path d="M2.66667 5.66666H11.3333C11.5101 5.66666 11.6797 5.7369 11.8047 5.86193C11.9298 5.98695 12 6.15652 12 6.33333V13C12 13.1768 11.9298 13.3464 11.8047 13.4714C11.6797 13.5964 11.5101 13.6667 11.3333 13.6667H0.666667C0.489856 13.6667 0.320286 13.5964 0.195262 13.4714C0.0702379 13.3464 0 13.1768 0 13V6.33333C0 6.15652 0.0702379 5.98695 0.195262 5.86193C0.320286 5.7369 0.489856 5.66666 0.666667 5.66666H1.33333V5C1.33295 3.94847 1.68772 2.92762 2.34013 2.10295C2.99253 1.27828 3.90434 0.698116 4.92773 0.456505C5.95113 0.214893 7.02613 0.325996 7.97848 0.771804C8.93084 1.21761 9.70471 1.97199 10.1747 2.91266L8.982 3.50866C8.64633 2.83667 8.09353 2.29776 7.41322 1.97929C6.73291 1.66083 5.96497 1.58148 5.23392 1.75411C4.50287 1.92675 3.85155 2.34125 3.38557 2.9304C2.91959 3.51956 2.66627 4.24884 2.66667 5V5.66666ZM1.33333 7V12.3333H10.6667V7H1.33333ZM4.66667 9H7.33333V10.3333H4.66667V9Z" fill="#1A2859"/>
</svg>
