<svg width="12" height="15" viewBox="0 0 12 15" fill="none" xmlns="http://www.w3.org/2000/svg">
<path d="M11.3333 14.6667H9.99999V13.3333C9.99999 12.8029 9.78928 12.2942 9.4142 11.9191C9.03913 11.5441 8.53042 11.3333 7.99999 11.3333H3.99999C3.46956 11.3333 2.96085 11.5441 2.58578 11.9191C2.2107 12.2942 1.99999 12.8029 1.99999 13.3333V14.6667H0.666656V13.3333C0.666656 12.4493 1.01785 11.6014 1.64297 10.9763C2.26809 10.3512 3.11593 10 3.99999 10H7.99999C8.88404 10 9.73189 10.3512 10.357 10.9763C10.9821 11.6014 11.3333 12.4493 11.3333 13.3333V14.6667ZM5.99999 8.66667C5.4747 8.66667 4.95456 8.56321 4.46926 8.36219C3.98395 8.16117 3.543 7.86653 3.17156 7.4951C2.80013 7.12366 2.50549 6.68271 2.30447 6.19741C2.10345 5.7121 1.99999 5.19196 1.99999 4.66667C1.99999 4.14138 2.10345 3.62124 2.30447 3.13594C2.50549 2.65064 2.80013 2.20968 3.17156 1.83824C3.543 1.46681 3.98395 1.17217 4.46926 0.971154C4.95456 0.770135 5.4747 0.666672 5.99999 0.666672C7.06085 0.666672 8.07827 1.0881 8.82842 1.83824C9.57856 2.58839 9.99999 3.60581 9.99999 4.66667C9.99999 5.72754 9.57856 6.74495 8.82842 7.4951C8.07827 8.24524 7.06085 8.66667 5.99999 8.66667ZM5.99999 7.33334C6.70723 7.33334 7.38551 7.05239 7.88561 6.55229C8.3857 6.05219 8.66666 5.37392 8.66666 4.66667C8.66666 3.95943 8.3857 3.28115 7.88561 2.78105C7.38551 2.28096 6.70723 2.00001 5.99999 2.00001C5.29275 2.00001 4.61447 2.28096 4.11437 2.78105C3.61427 3.28115 3.33332 3.95943 3.33332 4.66667C3.33332 5.37392 3.61427 6.05219 4.11437 6.55229C4.61447 7.05239 5.29275 7.33334 5.99999 7.33334Z" fill="#1A2859"/>
</svg>
