<svg width="13" height="17" viewBox="0 0 13 17" fill="none" xmlns="http://www.w3.org/2000/svg">
<path d="M5.25 12.4535C3.73703 12.261 2.35414 11.4996 1.38239 10.3241C0.410642 9.14857 -0.0770404 7.64715 0.0184654 6.12498C0.113971 4.60281 0.785498 3.17412 1.89656 2.12929C3.00762 1.08446 4.47484 0.501892 6 0.500002C7.52703 0.498865 8.99704 1.08001 10.1105 2.12501C11.224 3.17001 11.8971 4.60025 11.9927 6.12428C12.0883 7.64831 11.5992 9.15146 10.6251 10.3274C9.65104 11.5034 8.2652 12.2638 6.75 12.4535V14.009C9.7095 14.078 12 14.5513 12 15.125C12 15.746 9.3135 16.25 6 16.25C2.6865 16.25 0 15.746 0 15.125C0 14.5513 2.2905 14.078 5.25 14.009V12.4535ZM6 11C7.19347 11 8.33807 10.5259 9.18198 9.68198C10.0259 8.83807 10.5 7.69348 10.5 6.5C10.5 5.30653 10.0259 4.16193 9.18198 3.31802C8.33807 2.47411 7.19347 2 6 2C4.80653 2 3.66193 2.47411 2.81802 3.31802C1.97411 4.16193 1.5 5.30653 1.5 6.5C1.5 7.69348 1.97411 8.83807 2.81802 9.68198C3.66193 10.5259 4.80653 11 6 11ZM6 8C5.60218 8 5.22064 7.84197 4.93934 7.56066C4.65804 7.27936 4.5 6.89783 4.5 6.5C4.5 6.10218 4.65804 5.72065 4.93934 5.43934C5.22064 5.15804 5.60218 5 6 5C6.39782 5 6.77936 5.15804 7.06066 5.43934C7.34196 5.72065 7.5 6.10218 7.5 6.5C7.5 6.89783 7.34196 7.27936 7.06066 7.56066C6.77936 7.84197 6.39782 8 6 8Z" fill="#656565"/>
</svg>
