<svg width="17" height="16" viewBox="0 0 17 16" fill="none" xmlns="http://www.w3.org/2000/svg">
<path d="M3.75 7.25H9.75V8.75H3.75V11L0 8L3.75 5V7.25ZM3 12.5H5.031C5.89701 13.2638 6.96501 13.7614 8.10684 13.9332C9.24868 14.105 10.4158 13.9437 11.4683 13.4686C12.5207 12.9935 13.4137 12.2249 14.0401 11.2549C14.6664 10.2848 14.9996 9.15469 14.9996 8C14.9996 6.84532 14.6664 5.71516 14.0401 4.74514C13.4137 3.77512 12.5207 3.00646 11.4683 2.53137C10.4158 2.05629 9.24868 1.89498 8.10684 2.0668C6.96501 2.23861 5.89701 2.73625 5.031 3.5H3C3.698 2.56788 4.60375 1.81139 5.6453 1.29061C6.68686 0.769832 7.83551 0.499127 9 0.500002C13.1423 0.500002 16.5 3.85775 16.5 8C16.5 12.1423 13.1423 15.5 9 15.5C7.83551 15.5009 6.68686 15.2302 5.6453 14.7094C4.60375 14.1886 3.698 13.4321 3 12.5Z" fill="#656565"/>
</svg>
