<svg width="14" height="17" viewBox="0 0 14 17" fill="none" xmlns="http://www.w3.org/2000/svg">
<path d="M11.5 6.5C11.5 5.30653 11.0259 4.16193 10.182 3.31802C9.33807 2.47411 8.19347 2 7 2C5.80653 2 4.66193 2.47411 3.81802 3.31802C2.97411 4.16193 2.5 5.30653 2.5 6.5V12.5H11.5V6.5ZM13 13.0002L13.3 13.4C13.3418 13.4557 13.3672 13.522 13.3735 13.5913C13.3797 13.6607 13.3666 13.7304 13.3354 13.7927C13.3043 13.855 13.2564 13.9074 13.1971 13.944C13.1379 13.9806 13.0696 14 13 14H1C0.930358 14 0.862092 13.9806 0.802851 13.944C0.74361 13.9074 0.695735 13.855 0.66459 13.7927C0.633445 13.7304 0.620261 13.6607 0.626515 13.5913C0.63277 13.522 0.658215 13.4557 0.7 13.4L1 13.0002V6.5C1 4.9087 1.63214 3.38258 2.75736 2.25736C3.88258 1.13214 5.4087 0.5 7 0.5C8.5913 0.5 10.1174 1.13214 11.2426 2.25736C12.3679 3.38258 13 4.9087 13 6.5V13.0002ZM5.125 14.75H8.875C8.875 15.2473 8.67745 15.7242 8.32582 16.0758C7.97419 16.4275 7.49728 16.625 7 16.625C6.50272 16.625 6.0258 16.4275 5.67417 16.0758C5.32254 15.7242 5.125 15.2473 5.125 14.75Z" fill="#656565"/>
</svg>
