<svg width="15" height="16" viewBox="0 0 15 16" fill="none" xmlns="http://www.w3.org/2000/svg">
<path d="M8.83991 11.7673L5.69066 10.0497C5.27951 10.4893 4.74565 10.795 4.15846 10.9272C3.57128 11.0593 2.95792 11.0118 2.3981 10.7908C1.83828 10.5698 1.35788 10.1855 1.01934 9.68783C0.680792 9.1902 0.499756 8.60225 0.499756 8.00037C0.499756 7.3985 0.680792 6.81055 1.01934 6.31292C1.35788 5.81529 1.83828 5.43099 2.3981 5.20997C2.95792 4.98895 3.57128 4.94143 4.15846 5.07359C4.74565 5.20574 5.27951 5.51145 5.69066 5.951L8.84066 4.2335C8.66183 3.52556 8.74733 2.77669 9.08113 2.12728C9.41494 1.47786 9.97414 0.972486 10.6539 0.705876C11.3337 0.439266 12.0873 0.429729 12.7736 0.679051C13.4599 0.928373 14.0318 1.41944 14.3819 2.0602C14.732 2.70095 14.8364 3.44742 14.6756 4.15966C14.5147 4.8719 14.0996 5.50103 13.5081 5.92911C12.9166 6.35719 12.1892 6.55483 11.4624 6.485C10.7355 6.41516 10.0591 6.08263 9.55991 5.54975L6.40991 7.26725C6.53081 7.74827 6.53081 8.25173 6.40991 8.73275L9.55916 10.4502C10.0584 9.91737 10.7348 9.58484 11.4616 9.515C12.1884 9.44517 12.9158 9.64281 13.5073 10.0709C14.0989 10.499 14.514 11.1281 14.6748 11.8403C14.8357 12.5526 14.7313 13.299 14.3811 13.9398C14.031 14.5806 13.4592 15.0716 12.7729 15.3209C12.0866 15.5703 11.3329 15.5607 10.6532 15.2941C9.97339 15.0275 9.41419 14.5221 9.08039 13.8727C8.74658 13.2233 8.66108 12.4744 8.83991 11.7665V11.7673ZM3.49991 9.5C3.89774 9.5 4.27927 9.34196 4.56057 9.06066C4.84188 8.77936 4.99991 8.39782 4.99991 8C4.99991 7.60218 4.84188 7.22064 4.56057 6.93934C4.27927 6.65804 3.89774 6.5 3.49991 6.5C3.10209 6.5 2.72055 6.65804 2.43925 6.93934C2.15795 7.22064 1.99991 7.60218 1.99991 8C1.99991 8.39782 2.15795 8.77936 2.43925 9.06066C2.72055 9.34196 3.10209 9.5 3.49991 9.5ZM11.7499 5C12.1477 5 12.5293 4.84196 12.8106 4.56066C13.0919 4.27936 13.2499 3.89782 13.2499 3.5C13.2499 3.10218 13.0919 2.72064 12.8106 2.43934C12.5293 2.15804 12.1477 2 11.7499 2C11.3521 2 10.9706 2.15804 10.6893 2.43934C10.4079 2.72064 10.2499 3.10218 10.2499 3.5C10.2499 3.89782 10.4079 4.27936 10.6893 4.56066C10.9706 4.84196 11.3521 5 11.7499 5ZM11.7499 14C12.1477 14 12.5293 13.842 12.8106 13.5607C13.0919 13.2794 13.2499 12.8978 13.2499 12.5C13.2499 12.1022 13.0919 11.7206 12.8106 11.4393C12.5293 11.158 12.1477 11 11.7499 11C11.3521 11 10.9706 11.158 10.6893 11.4393C10.4079 11.7206 10.2499 12.1022 10.2499 12.5C10.2499 12.8978 10.4079 13.2794 10.6893 13.5607C10.9706 13.842 11.3521 14 11.7499 14Z" fill="#656565"/>
</svg>
